#!OML:ASF I:\Actors\actors\Patient Classification 2\Patient 1\Session 1\actor1.ASF
:FULLY-SPECIFIED
:DEGREES
291
root -0.665662 18.5878 6.30209 2.61154 -0.65476 -5.66311
lowerback 13.1615 1.42023 1.76108
upperback -0.463202 2.3063 1.7858
thorax -7.8987 1.08617 0.449237
lowerneck -4.46121 -14.8867 -11.8838
upperneck 7.4517 -19.8834 8.46321
head 4.97203 -9.79275 2.96736
rclavicle 6.13748e-015 -2.47487e-014
rhumerus -93.2591 16.431 -104.432
rradius 107.227
rwrist 0.316946
rhand -15.9708 -38.0745
rfingers 7.12502
rthumb 10.2283 -67.8058
lclavicle 6.13748e-015 -2.47487e-014
lhumerus -88.3273 -22.8772 113.951
lradius 104.498
lwrist 16.7448
lhand -30.8858 -47.6605
lfingers 7.12502
lthumb -4.17284 -17.7216
rfemur 7.36799 -2.72411 19.2121
rtibia -9.54166e-015
rfoot -14.53 -10.8414
rtoes -11.4587
lfemur -8.49818 -1.15065 -7.91553
ltibia 27.9495
lfoot -22.5127 6.98813
ltoes -57.272
292
root -0.676654 18.5847 6.29272 2.71923 -0.606787 -5.38365
lowerback 13.1324 1.2463 1.94969
upperback -0.465088 2.11391 1.91582
thorax -7.88313 0.988236 0.519646
lowerneck -3.83098 -15.2373 -12.1589
upperneck 7.24257 -20.3611 8.20192
head 4.85142 -10.0633 2.92807
rclavicle -2.55594e-014 4.82053e-015
rhumerus -92.862 16.0647 -104.291
rradius 107.07
rwrist 0.767528
rhand -16.009 -37.8447
rfingers 7.12502
rthumb 10.1914 -67.5779
lclavicle -2.55594e-014 4.82053e-015
lhumerus -88.2226 -22.828 113.955
lradius 104.39
lwrist 16.5581
lhand -30.9254 -47.5262
lfingers 7.12502
lthumb -4.21112 -17.5881
rfemur 7.24513 -2.78918 18.9826
rtibia 3.18055e-015
rfoot -14.7063 -10.783
rtoes -10.8211
lfemur -8.69017 -1.07643 -8.15533
ltibia 27.9841
lfoot -22.3839 6.79834
ltoes -57.1693
293
root -0.68852 18.5844 6.27904 2.83263 -0.495825 -5.09291
lowerback 13.1682 1.04494 2.13816
upperback -0.479152 1.88986 2.07322
thorax -7.91905 0.87501 0.624116
lowerneck -3.20612 -15.5354 -12.3737
upperneck 7.00474 -20.7646 7.8508
head 4.69987 -10.298 2.86824
rclavicle -1.24116e-014 6.21202e-015
rhumerus -92.5801 16.6489 -103.829
rradius 107.235
rwrist 0.52595
rhand -16.0467 -37.332
rfingers 7.12502
rthumb 10.1551 -67.0669
lclavicle -1.24116e-014 6.21202e-015
lhumerus -88.123 -22.73 114.012
lradius 104.147
lwrist 16.5649
lhand -30.8681 -47.7681
lfingers 7.12502
lthumb -4.15574 -17.8289
rfemur 7.1037 -2.91854 18.7464
rtibia -7.95139e-015
rfoot -14.8872 -10.805
rtoes -10.7494
lfemur -8.91431 -1.02722 -8.39938
ltibia 28.0077
lfoot -22.2768 6.63614
ltoes -57.1279
294
root -0.699556 18.5851 6.26191 2.94322 -0.34799 -4.80093
lowerback 13.2795 0.819349 2.37931
upperback -0.512597 1.6454 2.22457
thorax -8.01736 0.748892 0.695932
lowerneck -2.60798 -15.8051 -12.5643
upperneck 6.86431 -21.1325 7.43733
head 4.5698 -10.5141 2.78875
rclavicle -5.14355e-015 5.56597e-015
rhumerus -92.3003 16.7897 -103.641
rradius 107.28
rwrist 0.69343
rhand -15.9736 -36.9602
rfingers 7.12502
rthumb 10.2257 -66.6917
lclavicle -5.14355e-015 5.56597e-015
lhumerus -88.0502 -22.6133 114.124
lradius 103.693
lwrist 17.2423
lhand -30.3526 -49.0984
lfingers 7.12502
lthumb -3.65796 -19.1501
rfemur 6.95342 -3.08452 18.4947
rtibia -1.11319e-014
rfoot -15.0202 -10.9004
rtoes -11.3336
lfemur -9.15192 -0.89987 -8.64142
ltibia 28.0153
lfoot -22.1062 6.41436
ltoes -57.122
295
root -0.709486 18.5854 6.24349 3.04969 -0.170653 -4.53901
lowerback 13.4086 0.582858 2.71651
upperback -0.559837 1.40309 2.36373
thorax -8.13899 0.619176 0.701267
lowerneck -1.91529 -16.0089 -12.7735
upperneck 6.69423 -21.4337 7.10894
head 4.42055 -10.6957 2.7542
rclavicle 4.37326e-015 -2.5842e-015
rhumerus -92.0191 16.9349 -103.538
rradius 107.277
rwrist 0.728042
rhand -15.8032 -36.7666
rfingers 7.12502
rthumb 10.39 -66.4899
lclavicle 4.37326e-015 -2.5842e-015
lhumerus -87.9319 -22.5136 114.005
lradius 103.919
lwrist 16.6051
lhand -30.7587 -47.7994
lfingers 7.12502
lthumb -4.05013 -17.8581
rfemur 6.80659 -3.27863 18.2661
rtibia 3.18055e-015
rfoot -15.0497 -10.9935
rtoes -11.8426
lfemur -9.38844 -0.799378 -8.85661
ltibia 28.011
lfoot -21.9066 6.19246
ltoes -57.1222
296
root -0.719412 18.5858 6.22497 3.17355 -0.0040801 -4.27357
lowerback 13.5165 0.361115 3.06664
upperback -0.616076 1.182 2.48653
thorax -8.25926 0.498601 0.679182
lowerneck -1.08592 -16.1694 -12.9399
upperneck 6.39518 -21.7041 6.88744
head 4.21487 -10.8591 2.76767
rclavicle 3.57812e-015 -1.47101e-014
rhumerus -91.7277 17.0219 -103.472
rradius 107.242
rwrist 0.818134
rhand -15.62 -36.5617
rfingers 7.12502
rthumb 10.5667 -66.2761
lclavicle 3.57812e-015 -1.47101e-014
lhumerus -87.9307 -22.4725 113.935
lradius 103.944
lwrist 16.2863
lhand -31.0047 -47.3868
lfingers 7.12502
lthumb -4.28766 -17.4502
rfemur 6.64512 -3.46319 18.0268
rtibia 0
rfoot -15.1074 -10.9989
rtoes -11.5339
lfemur -9.63017 -0.734407 -9.08514
ltibia 27.9966
lfoot -21.7402 6.01181
ltoes -57.088
297
root -0.729888 18.5862 6.20647 3.31312 0.185923 -4.00654
lowerback 13.461 0.130837 3.32196
upperback -0.57735 0.927433 2.66831
thorax -8.18828 0.369856 0.78107
lowerneck -0.238982 -16.2995 -13.0571
upperneck 5.97209 -21.9394 6.70397
head 3.96464 -11.0008 2.79979
rclavicle -1.1281e-014 1.19271e-014
rhumerus -91.302 17.2085 -103.34
rradius 107.226
rwrist 0.833075
rhand -15.4277 -36.5673
rfingers 7.12502
rthumb 10.7522 -66.2721
lclavicle -1.1281e-014 1.19271e-014
lhumerus -87.7276 -22.4161 113.852
lradius 103.877
lwrist 16.1644
lhand -31.0188 -47.2033
lfingers 7.12502
lthumb -4.3013 -17.267
rfemur 6.47867 -3.67275 17.7853
rtibia 9.54166e-015
rfoot -15.1676 -10.9316
rtoes -10.9257
lfemur -9.89457 -0.691532 -9.31501
ltibia 27.9771
lfoot -21.5836 5.83891
ltoes -57.0376
298
root -0.73987 18.5878 6.18739 3.42175 0.446656 -3.79182
lowerback 13.1705 -0.128421 3.4651
upperback -0.353221 0.603705 2.97446
thorax -7.78728 0.219438 1.08875
lowerneck 0.548844 -16.3536 -13.0588
upperneck 5.40075 -22.063 6.49478
head 3.65321 -11.0811 2.82834
rclavicle -2.28602e-015 -1.59028e-015
rhumerus -90.6796 17.659 -103.076
rradius 107.27
rwrist 0.692605
rhand -15.2859 -36.708
rfingers 7.12502
rthumb 10.8889 -66.4056
lclavicle -2.28602e-015 -1.59028e-015
lhumerus -87.125 -22.3216 113.674
lradius 103.786
lwrist 16.0474
lhand -30.832 -46.9848
lfingers 7.12502
lthumb -4.12094 -17.045
rfemur 6.35697 -3.95009 17.6075
rtibia 3.18055e-015
rfoot -15.1674 -10.8954
rtoes -10.575
lfemur -10.1492 -0.73467 -9.48413
ltibia 27.9613
lfoot -21.4159 5.64846
ltoes -57.0268
299
root -0.749715 18.5903 6.16861 3.50892 0.754396 -3.61552
lowerback 13.5511 -0.339265 4.0459
upperback -0.61117 0.457906 3.04669
thorax -8.28175 0.119741 0.874469
lowerneck 1.57447 -16.4856 -13.0609
upperneck 5.57649 -22.3352 6.02722
head 3.51915 -11.2487 2.76015
rclavicle -2.68359e-015 2.54444e-014
rhumerus -90.7584 17.3858 -103.12
rradius 107.388
rwrist 0.622429
rhand -15.2687 -36.6327
rfingers 7.12502
rthumb 10.9056 -66.3295
lclavicle -2.68359e-015 2.54444e-014
lhumerus -87.5205 -22.4659 113.736
lradius 103.778
lwrist 15.845
lhand -30.6237 -46.8129
lfingers 7.12502
lthumb -3.9198 -16.8692
rfemur 6.26388 -4.27213 17.4801
rtibia -2.22639e-014
rfoot -15.1452 -10.9246
rtoes -10.8112
lfemur -10.4038 -0.788898 -9.6094
ltibia 27.9611
lfoot -21.2248 5.44153
ltoes -57.0869
300
root -0.758968 18.5926 6.15246 3.59301 1.07714 -3.44346
lowerback 13.322 -0.58644 4.25712
upperback -0.445194 0.165137 3.36135
thorax -7.97798 -0.0186881 1.14624
lowerneck 2.14747 -16.6155 -13.0575
upperneck 5.71448 -22.535 5.40917
head 3.41871 -11.371 2.62126
rclavicle -4.27387e-015 -1.43125e-014
rhumerus -90.2933 17.8002 -102.848
rradius 107.52
rwrist 0.466375
rhand -15.3458 -36.4217
rfingers 7.12502
rthumb 10.8312 -66.1224
lclavicle -4.27387e-015 -1.43125e-014
lhumerus -87.0405 -22.4955 113.594
lradius 103.669
lwrist 15.5485
lhand -30.4346 -46.3624
lfingers 7.12502
lthumb -3.73711 -16.4155
rfemur 6.18379 -4.60881 17.3507
rtibia 1.59028e-015
rfoot -15.1332 -10.9474
rtoes -11.209
lfemur -10.6669 -0.81874 -9.7342
ltibia 27.9888
lfoot -21.0464 5.23151
ltoes -57.1284
